<svg xmlns="http://www.w3.org/2000/svg" fill="none" viewBox="0 0 101 38"><path d="M17 8c2.4 0 4.3 3.1 4.3 10.1v18.4H16V21c0-2.2-.4-3.6-1.3-3.6-.8 0-1.6 1-1.6 3.7v15.4H8V21c0-2.2-.4-3.6-1.3-3.6-.7 0-1.5 1-1.5 3.7v15.4H0v-28h5v4.9h.1c1-4.2 2.4-5.5 4-5.5s3 1.4 3.7 4.8h.1c1-3 2.2-4.7 4-4.7zm13 29.2c-4.5 0-7.4-5.8-7.4-14.6S25.6 8 29.9 8s7.3 5.8 7.3 14.6-3 14.6-7.3 14.6zm0-8.7c1 0 2-1.5 2-5.8s-1-6-2-6c-1.3 0-2.2 1.6-2.2 6 0 4.3.9 5.8 2.1 5.8zM55.4 8c2.5 0 4.3 3.2 4.3 10.2v18.4h-5.2V21c0-2.2-.4-3.6-1.3-3.6-.7 0-1.5 1-1.5 3.7v15.4h-5.2V21c0-2.2-.4-3.6-1.3-3.6-.8 0-1.6 1-1.6 3.7v15.4h-5.2v-28h5.1v4.9c1-4.2 2.4-5.5 4-5.5 1.7 0 3 1.4 3.8 4.8 1-3 2.3-4.7 4.1-4.7zm20 14.3-.1 3.2H66c0 2.5.9 4.2 2.5 4.2.9 0 1.5-.5 1.8-1.5h4.9c-.8 5.9-3.4 9-6.8 9-4.5 0-7.3-5.4-7.3-14.4S64 8 68.4 8c4.2 0 7 5.2 7 14.2zm-7.2-6.8c-1.3 0-2 1.3-2.2 4.1h4.4c-.1-2.7-.9-4-2.2-4zM86 8c2.6 0 4.4 3.2 4.4 11.3v17.3h-5.2V21c0-2.2-.5-3.6-1.5-3.6-.8 0-1.7 1-1.7 3.7v15.4h-5.2v-28H82v4.2C83 9.2 84.4 8 86 8zm15 8.4h-2.8v9.4c0 2.3.6 2.5 1.5 2.5h1v8.3c-.7.2-1.4.3-2.2.3-4 0-5.5-2.6-5.5-8.8V16.3h-1.8V8.6H93V0h5.2v8.6h2.7v7.7z" fill="#000"/></svg>