<svg xmlns="http://www.w3.org/2000/svg" fill="none" viewBox="0 0 123 38"><mask id="a" width="123" height="38" x="0" y="0" maskUnits="userSpaceOnUse" style="mask-type:alpha"><path d="M0 0h123v38H0z" fill="#D9D9D9"/></mask><g mask="url(#a)"><path d="M54.6 36.2H54l-.2-.4H53l-.1.3-.1.5.1.5c.1.2.3.3.5.3s.3 0 .4-.2l.2-.4h.5c0 .3-.2.6-.4.7a1 1 0 0 1-.7.2 1 1 0 0 1-.8-.3c-.2-.2-.3-.5-.3-.8 0-.4 0-.7.3-1 .2-.2.5-.3.8-.3l.7.2.4.7Zm.4 1.5v-2.3h.4v.4l.3-.3.4-.2h.2v.5h-.2c-.2 0-.3 0-.4.2-.2.2-.2.4-.2.6v1H55Zm3.5-1h-1.7c0 .2 0 .3.2.5l.5.2c.2 0 .4-.2.5-.4h.5c0 .2-.2.4-.4.5-.2.2-.4.2-.6.2a1 1 0 0 1-.9-.3c-.2-.2-.3-.5-.3-.9 0-.3.1-.6.3-.8.2-.3.5-.4.8-.4.4 0 .7.2.9.4.2.3.3.6.2 1Zm-1.7-.4H58V36a.5.5 0 0 0-.5-.2c-.1 0-.3 0-.4.2l-.2.4Zm4-.3v1.3h.2v.4a1 1 0 0 1-.2 0c-.3 0-.4 0-.4-.2l-.4.2h-.4a1 1 0 0 1-.6-.1.6.6 0 0 1-.2-.5v-.3l.2-.2.2-.1h.2l.3-.1h.2l.4-.2V36c0-.2 0-.3-.4-.3l-.4.1-.1.3h-.5c0-.3 0-.5.3-.6l.7-.2c.3 0 .5 0 .7.2l.2.5Zm-.5 1v-.5l-.4.1h-.2c-.3.1-.4.2-.4.4l.1.3h.8l.1-.4Zm.9-1.2v-.4h.3v-.7h.5v.7h.5v.4H62v1.4l.3.1h.2v.4a3 3 0 0 1-.3 0l-.5-.1-.2-.5v-1.3h-.3Zm3.7.9h-1.6l.1.5.5.2c.3 0 .4-.2.5-.4h.5c0 .2-.2.4-.4.5-.1.2-.4.2-.6.2a1 1 0 0 1-.9-.3c-.2-.2-.3-.5-.3-.9 0-.3.2-.6.4-.8.2-.3.4-.4.8-.4.3 0 .6.2.8.4.2.3.3.6.2 1Zm-1.6-.4h1.1l-.1-.4a.5.5 0 0 0-.4-.2c-.2 0-.4 0-.5.2l-.1.4Zm4.2-1.8v3.2H67v-.3c-.1.2-.4.3-.7.3-.4 0-.6 0-.8-.3-.2-.2-.3-.5-.3-.9s.1-.7.3-.9c.2-.2.4-.3.7-.3l.4.1c.2 0 .3.2.4.3v-1.2h.5Zm-1.8 2c0 .3 0 .5.2.6 0 .2.2.3.5.3.2 0 .3-.1.4-.3l.2-.6c0-.2 0-.4-.2-.6a.6.6 0 0 0-.4-.2c-.3 0-.4.1-.5.3a1 1 0 0 0-.2.6Zm3.3-.7v-.4h.4v-.2c0-.3 0-.4.2-.5l.5-.2h.3v.4h-.2c-.2 0-.3 0-.3.3v.2h.5v.4h-.5v1.9h-.5v-2H69Zm3.6 1.6c-.2.2-.5.3-.9.3-.3 0-.6 0-.8-.3-.2-.2-.3-.5-.3-.9 0-.3 0-.6.3-.8.2-.3.5-.4.8-.4.4 0 .7.1.9.4.2.2.3.5.3.8 0 .4-.1.7-.3 1Zm-1.4-.3c.2.2.3.3.5.3s.4-.1.5-.3l.2-.6c0-.2 0-.4-.2-.5a.5.5 0 0 0-.5-.3c-.2 0-.3.1-.5.3a1 1 0 0 0-.1.5l.1.6Zm2.1.6v-2.3h.5v.4l.2-.3.5-.2h.2v.5h-.3c-.1 0-.3 0-.4.2l-.2.6v1h-.5Zm2.6-2v-.3h.4v-.7h.5v.7h.4v.4h-.4v1.4l.2.1h.2v.4a3 3 0 0 1-.3 0l-.5-.1-.1-.5v-1.3h-.4Zm1.7 2v-3.2h.5v1.2l.3-.3h.4l.6.1.2.6v1.6H79V36l-.4-.2c-.1 0-.3 0-.4.2l-.1.4v1.4h-.5Zm4.6-1h-1.7c0 .2 0 .3.2.5l.4.2c.3 0 .5-.2.6-.4h.5c0 .2-.2.4-.4.5-.2.2-.4.2-.7.2a1 1 0 0 1-.8-.3c-.2-.2-.3-.5-.3-.9 0-.3.1-.6.3-.8.2-.3.5-.4.8-.4.4 0 .7.2.9.4.2.3.3.6.2 1Zm-1.7-.4h1.2c0-.1 0-.3-.2-.4a.5.5 0 0 0-.4-.2c-.1 0-.3 0-.4.2l-.2.4Zm5.7.8-1.4-1.5h-1v-.3h1l1.5 1.5h1v.3h-1.1Zm0-1.5v-.3h1v.3h-1Zm4.5 2-.7-2.2h.6L91 37l.5-1.7h.5l.4 1.7.5-1.7h.5l-.7 2.3H92l-.4-1.7-.4 1.7h-.6Zm4.9-.2c-.2.2-.5.3-.9.3-.3 0-.6 0-.8-.3-.2-.2-.3-.5-.3-.9 0-.3 0-.6.3-.8.2-.3.5-.4.8-.4.4 0 .7.1.9.4.2.2.3.5.3.8 0 .4 0 .7-.3 1Zm-1.3-.3c0 .2.2.3.4.3.3 0 .4-.1.5-.3l.2-.6c0-.2 0-.4-.2-.5a.5.5 0 0 0-.5-.3c-.2 0-.3.1-.4.3a1 1 0 0 0-.2.5c0 .3 0 .5.2.6Zm2 .6v-2.3h.5v.4l.3-.3.4-.2h.2v.5h-.2c-.2 0-.4 0-.5.2l-.2.6v1h-.5Zm1.6 0v-3.2h.5v3.2H98Zm3.2-3.2v3.2h-.5v-.3c0 .2-.3.3-.7.3-.3 0-.6 0-.8-.3-.2-.2-.3-.5-.3-.9s.1-.7.3-.9c.2-.2.5-.3.7-.3l.5.1.3.3v-1.2h.5Zm-1.7 2 .1.6c.1.2.3.3.5.3s.4-.1.5-.3l.1-.6-.1-.6a.6.6 0 0 0-.5-.2c-.2 0-.4.1-.5.3a1 1 0 0 0-.1.6Zm4 1.2-.7-2.3h.5l.5 1.7.4-1.7h.5l.4 1.7.5-1.7h.5l-.7 2.3h-.5l-.4-1.7-.5 1.7h-.5Zm3-2.7v-.5h.5v.5h-.5Zm0 2.7v-2.3h.5v2.3h-.5Zm3.2-3.2v3.2h-.5v-.3c-.1.2-.4.3-.7.3-.4 0-.6 0-.8-.3-.2-.2-.3-.5-.3-.9s.1-.7.3-.9c.2-.2.4-.3.7-.3l.5.1.3.3v-1.2h.5Zm-1.8 2c0 .3 0 .5.2.6 0 .2.3.3.5.3s.3-.1.4-.3l.2-.6c0-.2 0-.4-.2-.6a.6.6 0 0 0-.4-.2c-.2 0-.4.1-.5.3a1 1 0 0 0-.2.6Zm4.4.2h-1.7c0 .2 0 .3.2.5l.5.2c.2 0 .4-.2.5-.4h.5c0 .2-.2.4-.4.5-.2.2-.4.2-.6.2a1 1 0 0 1-.9-.3c-.2-.2-.3-.5-.3-.9 0-.3.1-.6.3-.8.2-.3.5-.4.8-.4.4 0 .7.2.9.4.2.3.3.6.2 1Zm-1.7-.4h1.2c0-.1 0-.3-.2-.4a.5.5 0 0 0-.4-.2c-.1 0-.3 0-.4.2l-.2.4Zm3.8 1.4-.7-2.3h.6l.4 1.7.5-1.7h.5l.4 1.7.5-1.7h.5l-.7 2.3h-.6l-.4-1.7-.4 1.7h-.6Zm5-1h-1.6c0 .2 0 .3.2.5l.4.2c.3 0 .5-.2.6-.4h.5l-.4.5c-.2.2-.4.2-.7.2a1 1 0 0 1-.8-.3c-.2-.2-.3-.5-.3-.9 0-.3 0-.6.3-.8.2-.3.5-.4.8-.4.4 0 .6.2.8.4.2.3.3.6.3 1Zm-1.6-.4h1.2c0-.1 0-.3-.2-.4a.5.5 0 0 0-.4-.2c-.2 0-.3 0-.4.2l-.2.4Zm2 1.4v-3.2h.6v1.2l.3-.3h.4c.3 0 .6 0 .8.3.2.2.3.5.3.9 0 .3-.1.6-.3.8a1 1 0 0 1-.7.3c-.4 0-.7 0-.8-.3v.3h-.5Zm1.8-1.2-.1-.5a.5.5 0 0 0-.5-.3l-.5.2a1 1 0 0 0-.1.6l.1.6c.2.2.3.3.5.3s.4-.1.5-.3l.1-.6ZM96.7 31v-2.3h.5v.3l.3-.3h.8l.3.3c.2-.2.4-.4.7-.4.5 0 .8.3.8.8V31h-.5v-1.7a.3.3 0 0 0-.3-.2h-.2c-.3 0-.5.1-.5.6V31h-.5v-1.8l-.4-.2c-.1 0-.2 0-.3.2l-.2.4V31h-.5Zm5.8-.3c-.2.3-.5.4-.9.4a1 1 0 0 1-.8-.4c-.2-.2-.3-.5-.3-.8 0-.4 0-.7.3-1 .2-.1.5-.3.8-.3.4 0 .7.2.9.4.2.2.3.5.3.9 0 .3-.1.6-.3.8Zm-1.3-.3c0 .2.2.3.4.3.3 0 .4-.1.5-.3l.2-.5c0-.3 0-.5-.2-.6a.5.5 0 0 0-.5-.3c-.2 0-.3.1-.4.3a1 1 0 0 0-.2.6c0 .2 0 .4.2.5Zm2 .6v-2.3h.5v.3l.3-.3h.8l.3.3c.2-.2.4-.4.7-.4.5 0 .8.3.8.8V31h-.6v-1.8l-.2-.1h-.2c-.3 0-.5.1-.5.6V31h-.5v-1.8l-.4-.2c-.1 0-.2 0-.3.2l-.2.4V31h-.5Zm6-1h-1.7l.1.5.5.2c.3 0 .5-.2.6-.4h.4l-.3.6-.7.2a1 1 0 0 1-.8-.4c-.2-.2-.3-.5-.3-.8 0-.4 0-.7.3-1 .2-.1.5-.3.8-.3.3 0 .6.2.8.4.2.3.3.6.3 1Zm-1.7-.3h1.2l-.2-.5a.5.5 0 0 0-.4-.2l-.4.2c-.2.1-.2.3-.2.5Zm2 1.3v-2.3h.5v.3l.3-.2.5-.2.5.2.3.6V31h-.5v-1.4c0-.2 0-.4-.2-.4 0-.1-.1-.2-.3-.2l-.4.2-.1.4V31h-.5Zm2.4-2v-.3h.4V28h.5v.7h.4v.4h-.4v1.5h.4v.4a3 3 0 0 1-.3 0l-.5-.1-.1-.5v-1.3h-.4Zm3.8.3v-.5h.4v.5h.9v.5h-.9v.5h-.4v-.5h-1v-.5h1Zm-1 1.7v-.5h2.3v.5h-2.2Zm6.4-3.2.5 1.3.5-1.3h.5v1.9h-.4v-1.5l-.5 1.5h-.3l-.5-1.5v1.5h-.3v-1.9h.5Zm-1 0v.3h-.5v1.6h-.3V28h-.6v-.3h1.5Zm-92.6 10-.2-.5.2-.5h.1v.3h.8l.1-.2v-.2l-.1-.2-.4-.7.2-.2.5.7.1.4v.5c0 .1-.1.2-.3.2h-.9v.4Zm-1.3-.3c-.3 0-.5 0-.7-.2a.4.4 0 0 1-.2-.4v-.2s0-.2.2-.3l.2-.4-.3-.2h.6l.3.4v.1l-.3-.1-.3.4v.4l.2.1H27v.4h-.8Zm0-1.8-.2-.2.4-.7.4-.5.3-.1h.2l.2.2.2.3.2.4.3-.1-.2.5h-.6l.3-.2-.3-.5-.1-.2h-.4l-.2.4-.4.7Zm5 1.8-.8-2.3h.6l.6 1.7.5-1.7h.6l-.8 2.3h-.6Zm2.5 0v-2.2H33v-.4l.6-.1.4-.4h.4v3h-.6Zm1.8 0v-.6h.6v.6h-.6Zm2.7-.1a1 1 0 0 1-.6.1 1 1 0 0 1-.5-.1 1 1 0 0 1-.3-.4l-.2-.5a3.3 3.3 0 0 1 .2-1.7.9.9 0 0 1 .8-.5l.6.1.3.4.2.6a3.3 3.3 0 0 1-.2 1.6l-.3.4ZM37 35.9c0 .8.2 1.2.5 1.2.4 0 .6-.4.6-1.2 0-.8-.2-1.2-.6-1.2-.3 0-.5.4-.5 1.2Zm2 1.6v-.6h.7v.6h-.6Zm2.8-.1a1 1 0 0 1-.6.1 1 1 0 0 1-.5-.1 1 1 0 0 1-.3-.4l-.2-.5a3.3 3.3 0 0 1 .2-1.7.9.9 0 0 1 .8-.5l.6.1.3.4.2.6a3.3 3.3 0 0 1-.2 1.6l-.3.4Zm-1.1-1.5c0 .8.2 1.2.5 1.2.4 0 .6-.4.6-1.2 0-.8-.2-1.2-.6-1.2-.3 0-.5.4-.5 1.2Zm-13-8 .2.2c0 .4-.2.8-.4 1.1.3.8 1 1.5 1.7 1.8l-.3.3c-.7-.3-1.2-1-1.6-1.7a5 5 0 0 1-2 1.8l-.2-.3c1-.5 2-1.4 2.4-2.8h-1.2c-.2.6-.6 1-1 1.3l-.2-.2a5 5 0 0 0 1.3-2.1h.4l-.3.7h1.1Zm5.9 2.3H32c.3.5.9.8 1.7.8l-.2.3c-1 0-1.5-.4-1.8-1-.3.5-.8.9-2 1V31c1 0 1.4-.4 1.6-.8h-1.6V30h1.7v-.4h-1.7v-.3h1.8v-.4H30v-.2h1.4v-.4h-1.6V28h.9a2 2 0 0 0-.3-.5l.2-.1.4.5-.1.1h1.3-.2l.4-.6h.4a4 4 0 0 1-.4.6h1v.3h-1.7v.4h1.4v.2h-1.4v.4h1.8v.3h-1.8v.4h1.9v.3Zm4.4-1v.4h-1.8v1.3c0 .2 0 .3-.2.4h-1V31h.8v-1.4H34v-.3h2v-.8h.2c.4-.1.7-.4 1-.6h-2.5v-.3h2.8l.3.2-1.4 1v.5H38Zm1.5-.1v-.4h.4v-.2l.1-.5.5-.2h.4v.5h-.3c-.1 0-.2 0-.2.2v.2h.4v.4h-.4V31H40v-2h-.4Zm3.5 1.6a1 1 0 0 1-.8.4c-.4 0-.7-.1-.9-.4-.2-.2-.3-.5-.3-.8 0-.4.1-.7.3-1 .2-.1.5-.3.9-.3.3 0 .6.2.8.4.2.2.3.5.3.9 0 .3 0 .6-.3.8Zm-1.3-.3c0 .2.3.3.5.3s.3-.1.5-.3l.1-.5-.1-.6a.5.5 0 0 0-.5-.3c-.2 0-.4.1-.5.3a1 1 0 0 0-.2.6c0 .2 0 .4.2.5Zm2 .6v-2.3h.5v.4l.3-.3.4-.2h.2v.5H45c-.2 0-.4 0-.5.2l-.1.6V31h-.6Zm2.9-2.7v-.5h.5v.5h-.5Zm0 2.7v-2.3h.5V31h-.5Zm1 0v-2.3h.5v.3a.9.9 0 0 1 .7-.4l.6.2c.2.2.2.4.2.6V31h-.5v-1.8l-.4-.2-.4.2-.2.4V31h-.5Zm2.3-2v-.3h.4V28h.5v.7h.5v.4h-.5v1.5h.5v.4a3 3 0 0 1-.4 0l-.5-.1V29H50Zm3.8 1H52c0 .2 0 .3.2.5l.5.2c.2 0 .4-.2.5-.4h.5c0 .2-.2.4-.4.6l-.6.2a1 1 0 0 1-.9-.4c-.2-.2-.3-.5-.3-.8 0-.4.1-.7.3-1 .2-.1.5-.3.8-.3.4 0 .7.2.9.4.2.3.3.6.2 1Zm-1.7-.3h1.2c0-.2 0-.4-.2-.5a.5.5 0 0 0-.4-.2l-.4.2-.2.5Zm2.1 1.3v-2.3h.5v.4l.2-.3.5-.2h.2v.5h-.3c-.1 0-.3 0-.4.2l-.2.6V31h-.5Zm1.6.8v-3h.5v.2c.1-.2.3-.4.7-.4.3 0 .6.2.8.4.2.2.3.5.3.9 0 .3-.1.6-.3.8-.2.2-.4.4-.7.4l-.5-.1a.7.7 0 0 1-.3-.3v1.1h-.5Zm1.7-2-.1-.5a.5.5 0 0 0-.5-.3c-.2 0-.4.1-.5.3a1 1 0 0 0-.1.6l.1.5c.2.2.3.3.5.3s.4-.1.5-.3l.1-.5Zm1 1.2v-3.2h.5V31h-.5Zm3-1.7v1.3h.2v.4a1 1 0 0 1-.3 0c-.2 0-.4 0-.4-.2l-.4.2h-.4a1 1 0 0 1-.6-.1.6.6 0 0 1-.2-.5V30l.2-.2.2-.1h.2l.3-.1h.3l.3-.1v-.2c0-.3 0-.4-.4-.4l-.3.1-.2.3h-.5c0-.3.1-.5.3-.6l.8-.2c.2 0 .4 0 .6.2.2.1.3.3.3.5Zm-.5 1v-.4h-.5c-.3.1-.5.2-.5.4s0 .2.2.3h.7l.2-.4Zm1 .7v-2.3h.5v.3a.9.9 0 0 1 .7-.4l.6.2c.2.2.2.4.2.6V31h-.5v-1.8L63 29l-.4.2-.2.4V31H62Zm4.6-1H65l.1.5.5.2c.3 0 .4-.2.5-.4h.5c0 .2-.2.4-.4.6l-.6.2a1 1 0 0 1-.9-.4l-.2-.8c0-.4 0-.7.3-1 .2-.1.4-.3.8-.3.3 0 .6.2.8.4.2.3.3.6.2 1Zm-1.6-.3H66l-.1-.5a.5.5 0 0 0-.4-.2l-.5.2-.1.5Zm1.8-.6v-.4h.4V28h.5v.7h.4v.4h-.4v1.5h.4v.4a3 3 0 0 1-.3 0l-.5-.1-.1-.5v-1.3h-.4Zm3.6.2v1.3h.2v.4a1 1 0 0 1-.2 0c-.3 0-.4 0-.4-.2l-.4.2h-.4a1 1 0 0 1-.6-.1.6.6 0 0 1-.2-.5V30l.2-.2.2-.1h.2l.2-.1h.3l.4-.1v-.2c0-.3-.1-.4-.4-.4l-.4.1-.1.3h-.5c0-.3 0-.5.3-.6l.7-.2c.3 0 .5 0 .7.2l.2.5Zm-.5 1v-.4h-.5c-.3.1-.4.2-.4.4l.1.3h.7c.2-.1.2-.2.2-.4Zm1 .7v-2.3h.6v.4s0-.2.2-.3l.4-.2h.2v.5H72c-.2 0-.3 0-.4.2-.2.2-.2.4-.2.6V31H71Zm2.3 0-1-2.3h.6l.6 1.7.6-1.7h.6l-1 2.4a3 3 0 0 1-.2.5c-.1.2-.3.3-.5.3h-.4v-.4h.5v-.3l.2-.2Zm4.9-2.3V31h-.5v-.3l-.3.3H77c-.3 0-.5 0-.6-.2-.2-.1-.2-.3-.2-.6v-1.5h.5v1.8l.4.2c.4 0 .6-.2.6-.7v-1.3h.5Zm.4 1.6h.5c0 .2.2.4.5.4h.4v-.2l.1-.1v-.2a.5.5 0 0 0-.3-.1 5.7 5.7 0 0 0-.7-.2l-.2-.1-.2-.2V29l.3-.2.3-.1h.3l.7.1.3.5h-.6c0-.2-.2-.3-.4-.3h-.2l-.2.1v.3h.1l.2.1.2.1h.2a1.7 1.7 0 0 1 .5.2l.2.2v.3l-.1.5-.4.2h-.5l-.7-.1a.7.7 0 0 1-.3-.6ZM83 30h-1.7c0 .2 0 .3.2.5l.4.2c.3 0 .5-.2.6-.4h.5c0 .2-.2.4-.4.6l-.7.2a1 1 0 0 1-.8-.4c-.2-.2-.3-.5-.3-.8 0-.4.1-.7.3-1 .2-.1.5-.3.8-.3.4 0 .7.2.9.4.2.3.3.6.2 1Zm-1.7-.3h1.2c0-.2 0-.4-.2-.5a.5.5 0 0 0-.4-.2l-.4.2-.2.5Zm5.2 1a1 1 0 0 1-.8.4c-.4 0-.7-.1-.9-.4-.2-.2-.3-.5-.3-.8 0-.4.1-.7.3-1 .2-.1.5-.3.9-.3.3 0 .6.2.8.4.2.2.3.5.3.9 0 .3 0 .6-.3.8Zm-1.3-.3c.1.2.3.3.5.3s.4-.1.5-.3l.1-.5-.1-.6a.5.5 0 0 0-.5-.3c-.2 0-.4.1-.5.3a1 1 0 0 0-.2.6c0 .2 0 .4.2.5Zm2 .6v-2.3h.5v.3a.9.9 0 0 1 .8-.4l.6.2.2.6V31h-.5v-1.4l-.1-.4-.4-.2-.4.2-.1.4V31h-.5Zm2.6 0v-3.2h.5V31h-.5Zm1.7 0-.9-2.3h.6l.6 1.7.6-1.7h.5l-.9 2.4a3 3 0 0 1-.2.5l-.6.3h-.4v-.4h.5l.1-.3V31Z" fill="#fff"/><g clip-path="url(#b)"><path d="M0 23.3V5.6h2.7v2.6h.1c1.3-2 3.2-3 5.7-3 2.6 0 4.2 1 4.9 3A6 6 0 0 1 15.7 6c1-.5 2-.8 3.2-.8 4 0 6 1.7 6 5.1v13h-3V11.7a5 5 0 0 0-.7-3c-.5-.6-1.4-1-2.7-1-1.4 0-2.6.5-3.4 1.3-.8.8-1.2 1.9-1.2 3.3v11h-3V11.7c0-1.3-.2-2.2-.7-3-.5-.6-1.3-1-2.6-1a4.8 4.8 0 0 0-4.7 4.6v11H0Zm28.2-8.8c0-2.8.8-5 2.3-6.7a8 8 0 0 1 6.3-2.6A8 8 0 0 1 43 7.8c1.5 1.7 2.3 4 2.3 6.7 0 2.6-.8 4.9-2.3 6.6a8 8 0 0 1-6.3 2.6 8 8 0 0 1-6.3-2.6 9.7 9.7 0 0 1-2.3-6.6Zm4.7-5a7.1 7.1 0 0 0-1.6 5c0 2 .5 3.7 1.6 4.8a5 5 0 0 0 3.9 1.8 5 5 0 0 0 4-1.8 7 7 0 0 0 1.5-4.8c0-2.1-.5-3.7-1.6-5a5 5 0 0 0-4-1.7A5 5 0 0 0 33 9.6Zm16 13.8V5.6h2.6v2.6h.1c1.3-2 3.2-3 5.7-3 2.6 0 4.2 1 4.9 3A6 6 0 0 1 64.5 6c1-.5 2-.8 3.2-.8 4 0 6 1.7 6 5.1v13h-3V11.7a5 5 0 0 0-.7-3c-.5-.6-1.4-1-2.7-1-1.4 0-2.6.5-3.4 1.3-.8.8-1.2 1.9-1.2 3.3v11h-3V11.7c0-1.3-.2-2.2-.7-3-.5-.6-1.3-1-2.6-1-1.5 0-2.6.6-3.4 1.6-.9 1-1.3 2-1.3 3v11h-2.9Zm41.3-5.6H93a7 7 0 0 1-2.6 4.4 8 8 0 0 1-5 1.6c-2.7 0-4.8-.9-6.2-2.5a11 11 0 0 1-2.3-6.8c0-2.7.8-4.9 2.3-6.6a7.7 7.7 0 0 1 6-2.6c1.2 0 2.3.2 3.3.6 1 .5 1.7 1 2.3 1.7a11.2 11.2 0 0 1 2.3 5.1c.1 1 .2 1.8.1 2.7H80.1c0 1.6.4 3 1.3 4.1 1 1.2 2.4 1.7 4.2 1.7 2.6 0 4-1.1 4.6-3.4Zm-10.1-5h10.2a5.4 5.4 0 0 0-1.6-3.5c-1-1-2.1-1.4-3.5-1.4-1.5 0-2.7.4-3.6 1.4a5 5 0 0 0-1.5 3.5Zm16.2 10.6V5.6h2.8v2.8a6.1 6.1 0 0 1 5.8-3.2c2.2 0 3.8.6 4.7 1.7 1 1.1 1.4 2.7 1.4 4.8v11.6h-3v-12c0-1-.2-2-.9-2.6-.6-.6-1.5-1-2.6-1-1.7 0-3 .6-4 1.6-.8 1-1.2 2.3-1.2 4v10h-3Zm23-23v5.3h3.6v2.6h-3.5v11c0 .6.1 1 .4 1.2.3.2.9.3 1.8.3h1.3v2.6h-2.2c-1.6 0-2.7-.3-3.3-.8-.6-.5-1-1.5-1-3V8.1h-3V5.6h3V.3h3Z" fill="#fff"/></g><mask id="c" width="21" height="22" x="0" y="27" maskUnits="userSpaceOnUse" style="mask-type:alpha"><path d="m5.8 37.4-.6-1.1V36l.6-1.2h.3v.8h1.8l.4-.2.1-.4-.1-.5L8 34l-1.1-1.8.7-.5 1.1 2 .5.8.1.8a1.2 1.2 0 0 1-1 1.1l-1 .2H6.2v.8h-.3Zm-3.5-.8c-.7 0-1.3-.1-1.7-.4-.4-.2-.6-.5-.6-1l.1-.6.4-.7.6-1.1-.7-.4.2-.3h1.2l.2.2.7 1-.2.3-.7-.4-.6 1-.2.5v.7l.3.2.4.1h2.7v.9h-2Zm.3-4.7-.7-.4 1.1-2 .9-1c.3-.2.6-.4.9-.4.1 0 .3 0 .5.2.2 0 .3.2.5.4l.4.7.7 1.1.7-.4v.3l-.6 1-.2.2H5.6l-.2-.3.7-.4-.5-1-.4-.6-.4-.2c-.2 0-.4 0-.6.2a4 4 0 0 0-.5.8l-1 1.8Zm18.2 2.7h-4.2c.8 1.2 2.2 1.9 4.4 2l-.5.9c-2.5-.3-4-1.2-4.8-3-.6 1.5-1.8 2.5-4.8 3 0-.3-.3-.6-.4-.8 2.5-.4 3.7-1 4.2-2.1h-4v-.8H15l.2-1h-4.5V32h4.6v-1h-3.6v-.7h3.6v-1h-4.1v-.7h2.3c-.2-.4-.5-1-.9-1.3l.7-.3c.5.4.9 1 1 1.4l-.3.2h3.4l-.5-.1c.4-.4.8-1 1-1.5l.9.3-1 1.3h2.5v.8H16v.9h3.7v.7H16v1h4.6v.8H16l-.2 1h5v.8ZM.2 48.4v-7.8h1.6v1l1-1 1.5-.3c.5 0 1 .2 1.4.4.4.2.6.5.8 1A3 3 0 0 1 9 40.3c1.7 0 2.6 1 2.6 2.7v5.4H9.9v-5.3c0-.2 0-.3-.2-.5a1 1 0 0 0-.6-.8h-.7c-1 0-1.6.6-1.6 2v4.6H5v-5c0-.6 0-1-.3-1.3-.2-.3-.5-.4-1-.4s-1 .2-1.3.6c-.3.3-.5.8-.5 1.5v4.6H.2Zm19.7-.9c-.7.8-1.7 1.1-2.9 1.1s-2.2-.3-2.9-1c-.7-.9-1-1.9-1-3.1 0-1.2.3-2.2 1-3 .7-.8 1.7-1.2 3-1.2 1.1 0 2.1.4 2.8 1.2.7.8 1 1.8 1 3s-.3 2.2-1 3Zm-4.5-1c.3.5.9.8 1.6.8a2 2 0 0 0 1.7-.8 3.6 3.6 0 0 0 0-4c-.4-.5-1-.8-1.7-.8a2 2 0 0 0-1.7.8 4.2 4.2 0 0 0 0 4Z" fill="#000"/></mask><g mask="url(#c)"><path d="M0 27h21.2v12.2H0z" fill="#fff"/></g></g><defs><clipPath id="b"><path d="M0 0h123v24H0z" fill="#fff"/></clipPath></defs></svg>