<svg xmlns="http://www.w3.org/2000/svg" fill="none" viewBox="0 0 139 35"><path d="M0 9.2h4v3.5a10 10 0 0 1 8.1-4c3.5 0 5.8 1.2 7 3.6a13 13 0 0 1 1 5.8v15.8H16V18.4a9 9 0 0 0-.7-3.7c-.7-1.5-2-2.3-4-2.3-1 0-1.8 0-2.4.3-1.2.3-2.2 1-3 2a6 6 0 0 0-1.4 2.6c-.2.8-.3 2-.3 3.7v13H0V9.1zm36.6-.5a11.2 11.2 0 0 1 8.9 4.4 11 11 0 0 1 1.6 4.4c.3 1 .4 3 .4 5.4h-18c0 2.5.6 4.5 1.7 6 1 1.5 2.8 2.3 5.1 2.3 2.2 0 4-.7 5.2-2.1a7.2 7.2 0 0 0 1.6-3h4A10.7 10.7 0 0 1 44 32a9.7 9.7 0 0 1-4.6 2.5c-1 .3-2.2.4-3.4.4-3 0-5.7-1.1-7.8-3.3A13.1 13.1 0 0 1 25 22c0-4 1-7.1 3.2-9.6s5-3.7 8.4-3.7zm6.6 10.9a10 10 0 0 0-1.1-4.3c-1.2-2-3-3-5.7-3-2 0-3.5.7-4.8 2a7.8 7.8 0 0 0-2 5.3h13.6zM56.8 9.2v16.4a7 7 0 0 0 .6 3.1c.7 1.5 2.1 2.2 4.1 2.2 3 0 4.9-1.3 6-3.9.5-1.3.8-3.2.8-5.7v-12h4.1v24.6h-3.9v-3.6a8.8 8.8 0 0 1-7.8 4.3c-3.4 0-5.8-1.2-7.1-3.5-.7-1.3-1-3-1-5v-17h4.2zm23-6.9H84v7h4v3.3h-4v16.1c0 .9.3 1.5.8 1.8l1.7.2h.6a25 25 0 0 0 .8 0v3.2a9.2 9.2 0 0 1-1.5.3l-1.7.1c-1.9 0-3.2-.5-3.9-1.5-.7-1-1-2.3-1-3.8V12.6h-3.4V9.2h3.4V2.3zm12.4 7h4v4.2c.3-.8 1-1.9 2.3-3a6.1 6.1 0 0 1 4.8-1.8h1v4.5a6 6 0 0 0-.8-.1 8.8 8.8 0 0 0-.6 0 6 6 0 0 0-4.9 2 7 7 0 0 0-1.7 4.6V34h-4.1V9.2zm18.8 18c0 1.2.4 2.2 1.3 2.9s2 1 3.1 1c1.5 0 2.9-.3 4.3-1 2.3-1.1 3.4-3 3.4-5.5v-3.4c-.5.4-1.1.6-2 .9s-1.5.3-2.3.4l-2.5.3c-1.5.2-2.6.6-3.4 1-1.3.7-2 1.9-2 3.4zm10-8.4c1 0 1.6-.5 2-1.2.2-.3.2-.9.2-1.5 0-1.5-.5-2.5-1.5-3.1a8 8 0 0 0-4.3-1c-2.2 0-3.7.6-4.6 1.8-.5.6-.8 1.6-1 2.9H108c.1-3 1-5.2 3-6.4 1.9-1.2 4-1.8 6.6-1.8 3 0 5.3.6 7 1.7 1.9 1 2.8 2.8 2.8 5.1v14.3c0 .4 0 .8.2 1 .2.3.6.4 1.2.4a9.7 9.7 0 0 0 1.3-.1v3l-1.5.4h-1.3c-1.5 0-2.5-.5-3.1-1.5-.4-.5-.6-1.3-.8-2.3a10.2 10.2 0 0 1-8.8 4.1 8 8 0 0 1-5.7-2 7 7 0 0 1-2.1-5.3c0-2.3.7-4 2.1-5.3s3.3-2 5.6-2.3l6.7-.9zM134.3 0h4.2v34h-4.2V0z" fill="#000"/></svg>