<svg xmlns="http://www.w3.org/2000/svg" fill="none" viewBox="0 0 1860 380"><path d="M67 132v20l1 7c1 0 3 0 4-3l6-6c7-10 15-16 24-20 10-5 20-8 30-8 20 0 36 8 47 22 12 14 18 35 18 63v108c0 10 2 17 7 20a20 20 0 00 8 3h7l4 3 2 5c0 6-3 9-9 9l-17-2a158 158 0 00-46 0 70 70 0 01-14 2c-5 0-8-3-8-10l1-4 4-2h5l6-3c4-2 6-4 7-7V213c0-20-3-35-10-45-8-10-18-15-32-15-13 0-23 4-31 13s-12 22-12 40v122c2 3 4 6 7 7l8 3H90l5 3 2 6c0 5-4 7-10 7-4 0-10 0-17-2a153 153 0 00-22-1l-22 1a70 70 0 01-15 2c-5 0-8-2-8-8l1-5 4-2h4l6-3c4-1 6-4 7-7l2-14V196c0-9-1-15-4-18-2-3-4-5-7-5l-7-1c-2 0-3-3-3-6s2-6 6-8l20-12c9-6 16-11 20-17s7-8 10-8l3 3 2 8zm260 63c17 0 30-2 36-5 8-4 12-11 12-22a30 30 0 00-10-23c-7-7-16-11-27-11s-22 5-30 14-15 20-17 34l-2 8c0 4 2 5 6 5h33zm75 16h-110l-6 1v19c0 31 6 56 19 74a60 60 0 00 51 27 68 68 0 00 41-15c5-3 9-7 11-10l6-4c2 0 4 2 4 5s-2 9-6 15-10 12-18 18c-7 6-16 10-26 15s-23 7-36 7a83 83 0 01-66-33 129 129 0 01-25-87c0-18 2-35 7-50 5-15 12-28 20-38a90 90 0 01 70-33 83 83 0 01 60 24 80 80 0 01 21 54c0 5-1 8-4 9l-13 2zm215-25 36 100c0 2 2 3 4 3 1 0 3-2 4-6l30-93a92 92 0 00 7-30c0-5-2-8-5-10a26 26 0 00-10-4l-10-2c-4-1-6-3-6-6l1-5 6-1h14l21 2 24-1 12-1h5l1 6c0 4-1 7-4 7l-12 2c-5 2-10 6-13 12l-13 28-57 160c-3 8-6 12-10 12-3 0-5-1-6-3l-3-10-46-121-48 122a30 30 0 01-4 9c-1 2-3 3-6 3s-4-1-5-3l-4-9-65-180a30 30 0 00-10-13 30 30 0 00-8-7l-8-4a6 6 0 01-3-5v-5l6-1 22 1 47 1H590l27-1 15-2c5 0 8 2 8 6 0 3-1 5-5 6a73 73 0 01-10 2l-10 3c-3 1-5 4-5 8l2 12 6 18zm-48 40 5-13 2-14-1-7-4-11a82 82 0 00-11-23c-7-9-17-13-32-13-9 0-16 2-21 5s-8 7-8 12l3 16 40 108c0 3 2 4 3 4l3-5 21-58zM811 95v30c0 5 3 8 7 8H860l1 5v15l-6 2h-39c-4 0-6 2-6 6v127c0 16 2 27 4 35 3 7 9 10 16 10 4 0 7 0 10-2 3 0 6-2 8-4l6-5 6-2c3 0 5 2 5 7l-5 10-12 11c-5 4-12 8-19 10-6 4-13 5-21 5-27 0-40-21-40-64v-20L770 170l-1-10c0-4-3-5-6-5h-10c-5 0-8-3-8-7 0-2 0-4 2-5l7-6a130 130 0 00 40-44c5-6 8-10 11-10 3 0 4 1 4 4l1 8zm212 86v116c0 10 0 20 2 24s5 8 10 8c4 0 7-1 10-5s6-5 10-5c3 0 5 3 5 8 0 3-1 6-4 10a85 85 0 01-25 20c-4 3-9 5-13 5-9 0-16-3-21-9s-10-14-14-26H980l-11 10a250 250 0 01-25 18c-7 5-16 8-25 8-10 0-20-3-26-10-7-8-10-18-10-30s2-21 6-30a70 70 0 01 16-22 140 140 0 01 25-20l33-18 12-7c3 0 5-2 5-4l1-8v-35a70 70 0 00-4-30c-2-7-7-10-16-10s-15 3-20 9c-5 5-10 13-15 24-3 9-8 16-12 22a30 30 0 01-22 8 10 10 0 01-7-2 9 9 0 01-2-7c0-7 2-15 6-23a80 80 0 01 20-23 105 105 0 01 65-24c10 0 20 1 26 4 6 2 11 6 15 11 3 5 5 10 6 18l2 25zm-41 66c0-4-1-7-3-7l-5 3-17 8c-20 10-30 26-30 50 0 10 2 17 6 22 3 5 8 7 14 7 4 0 8 0 12-3 4-2 8-5 10-9a50 50 0 00 10-14c1-5 3-11 3-18v-40zm144-198v108l1 3 4-2 6-6c10-10 18-17 26-22 9-4 18-7 30-7s21 3 31 9 19 13 26 23c8 10 13 21 18 35s6 30 6 47c0 19-2 36-7 51s-12 29-22 40a93 93 0 01-32 25 98 98 0 01-65 7 98 98 0 01-18-6l-13-5a20 20 0 00-8-3c-3 0-5 2-7 4l-6 10a60 60 0 01-5 9c-2 2-4 4-6 4-3 0-5-4-5-10 0-8 0-18 2-29l2-37v-240c0-4-1-7-4-9l-8-4-7-4c-3 0-4-2-4-4 0-4 3-6 7-7l16-6c12-4 20-8 26-12l11-6c3 0 4 0 5 2l1 7v35zm0 252c0 16 4 28 10 35a40 40 0 00 30 12c10 0 20-2 27-7s15-11 21-20a119 119 0 00 19-70c0-30-7-53-20-69a57 57 0 00-47-24c-10 0-17 1-22 5s-10 8-12 14-5 13-5 22V300zm215 4c6 0 10 3 15 8s7 11 7 19-2 14-7 19c-4 5-10 8-15 8s-10-3-15-8-7-11-7-20 2-13 7-18a20 20 0 01 15-8zm130-210v30c0 5 1 8 6 8h43v20l-6 2h-38c-4 0-6 2-6 6v127c0 16 1 27 4 35 3 7 9 10 16 10 4 0 7 0 10-2 3 0 5-2 8-4l6-5 5-2c4 0 5 2 5 7l-4 10a50 50 0 01-13 11c-5 4-10 8-18 10-6 4-14 5-21 5-27 0-40-21-40-64v-20l1-109v-10c-1-4-3-5-7-5h-9c-6 0-9-3-9-7 0-2 1-4 3-5l7-6a130 130 0 00 40-44c5-6 8-10 11-10 2 0 4 1 4 4l1 8zm138 70 23 40c2 2 3 4 5 4l4-5 23-34c3-5 4-10 4-14 0-3 0-5-3-6a34 34 0 00-7-2 38 38 0 01-7-3c-2 0-3-3-3-6 0-4 2-7 7-7a138 138 0 01 14 1l21 1h24l12-2 6 2 2 6c0 3 0 5-2 6l-5 2-8 1-10 3a40 40 0 00-17 13c-6 6-13 14-20 25l-21 30c-2 2-3 5-3 8v3l47 74c7 11 13 19 18 23l12 10 7 3c2 0 3 3 3 6 0 4-3 6-8 6h-14a392 392 0 00-62 0l-14 1c-6 0-10-2-10-7 0-3 2-5 4-6l10-3 9-3a7 7 0 00 4-7c0-2 0-4-2-7l-6-10-23-39c-2-3-4-4-5-4l-4 3-22 34-8 15-2 10c0 3 0 5 4 6l10 3a36 36 0 01 8 2 6 6 0 01 5 6c0 5-4 7-10 7H1580l-24-2a149 149 0 00-30 2c-5 0-8-2-8-7 0-3 0-5 2-6l6-2 8-2 9-3c4-2 10-7 17-15l25-33 20-30 2-7-2-7-45-66a60 60 0 00-17-20 52 52 0 00-20-10c-1-1-2-3-2-7 0-4 2-6 8-6l16 1 36 1 26-1 13-2c3 0 5 0 6 2 1 0 2 2 2 5s-1 5-4 7l-7 3a30 30 0 00-8 3c-2 0-3 3-3 6l3 8zm194-70v30c0 5 2 8 6 8h43l1 5v15l-6 2h-38c-4 0-6 2-6 6v127c0 16 1 27 4 35 3 7 8 10 16 10 3 0 7 0 10-2l7-4 6-5 6-2c3 0 5 2 5 7l-5 10-12 11c-5 4-11 8-18 10-7 4-14 5-22 5-27 0-40-21-40-64v-20l2-109-1-10c0-4-3-5-6-5h-10c-5 0-8-3-8-7 0-2 0-4 2-5l7-6a130 130 0 00 41-44c4-6 8-10 10-10 3 0 4 1 5 4v8" fill="#000"/></svg>
